<?xml version="1.0" encoding="UTF-8"?>
<svg id="Layer_2" data-name="Layer 2" xmlns="http://www.w3.org/2000/svg" viewBox="0 0 766.26 856.02">
  <defs>
    <style>
      .cls-1 {
        fill: #fff;
      }

      .cls-2 {
        fill: #2740fc;
      }

      .cls-3 {
        fill: #66bdff;
      }

      .cls-4 {
        fill: #2886f9;
      }
    </style>
  </defs>
  <g id="Layer_1-2" data-name="Layer 1">
    <g>
      <path class="cls-2" d="M766.26,527.1c0,36.01-16.4,69.26-43.38,88.39l-339.83,240.53L0,584.82l122.63-86.84,260.43,184.36,341.82-242.08c24.83,18.61,41.39,50.31,41.39,86.84Z"/>
      <path class="cls-4" d="M766.22,525.6c-.7-49.7-51.56-78.1-89.05-51.53l-294.12,208.28L122.63,497.99l-88.44-62.73c-.15-.15-.46-.34-.61-.52C12.56,419.59.01,393.4.01,365.49v-1.32c.73-55.18,57.07-86.63,98.57-57.23l146.83,104.05,19.71,13.95h236.03l19.71-13.95,122.62-86.85,35.35,25c54.04,38.22,86.97,104.75,87.4,176.45Z"/>
      <path class="cls-3" d="M766.25,237.11l-91.81,65.15-30.97,21.88-122.62,86.85-19.77,13.95h-235.91l-19.77-13.95-146.86-104.08C57.02,277.63.78,308.97.01,364.11v-11.02C.01,280.87,32.97,213.7,87.38,175.27L294,28.8c54.41-38.41,123.69-38.41,178.1,0l202.34,143.37,91.81,64.94Z"/>
      <polygon class="cls-1" points="265.18 424.93 383.21 295.7 501.08 424.93 265.18 424.93"/>
    </g>
  </g>
</svg>